<svg width="25" height="25" viewBox="0 0 18 20" fill="none" xmlns="http://www.w3.org/2000/svg">
<path
d="M8.56123 20C9.95338 20 11.071 18.8824 11.071 17.5098H6.05142C6.05142 18.8824 7.18868 20 8.56123 20ZM16.0514 14.8627C16.0318 14.8627 16.0318 14.8431 16.0122 14.8431C15.3063 14.2157 14.8946 13.3137 14.8946 12.3725V9.21569C14.6789 9.2549 14.4436 9.27451 14.2083 9.27451C13.0318 9.27451 11.9926 8.80392 11.2279 8.03922C10.4632 7.27451 9.9926 6.21569 9.9926 5.05882C9.9926 3.90196 10.4632 2.84314 11.2279 2.09804L11.2671 2.05882C10.875 1.88235 10.4632 1.7451 10.0514 1.64706C10.0514 1.58824 10.0514 1.54902 10.0514 1.4902C10.0514 0.666667 9.38476 0 8.56123 0C7.7377 0 7.07103 0.666667 7.07103 1.4902C7.07103 1.56863 7.07103 1.62745 7.09064 1.70588C4.42397 2.41176 2.44358 4.82353 2.44358 7.72549C2.44358 7.78431 2.46319 7.84314 2.46319 7.90196V12.1765C2.46319 13.1569 2.01221 14.098 1.2475 14.7059C1.18868 14.7647 1.12985 14.8039 1.09064 14.8431C0.44358 15.4118 0.0514227 16.2157 0.012207 17.0588H17.1102C17.071 16.2157 16.6789 15.4314 16.0514 14.8627Z"
fill="#CED1D5"
/>
<path
d="M17.4436 5.0588C17.4436 3.27448 15.9926 1.80389 14.2083 1.80389C12.4043 1.80389 10.9534 3.27448 10.9534 5.0588C10.9534 6.86272 12.4043 8.3137 14.2083 8.3137C15.9926 8.3137 17.4436 6.86272 17.4436 5.0588Z"
fill="#FF8900"
/>
<path d="M13.8947 3.84315L13.2085 4.17648L13.0908 3.66668L13.9928 3.2157H14.581V6.88236H13.8947V3.84315Z" fill="white" />
</svg>