<svg width="11" height="12" viewBox="0 0 11 12" fill="none" xmlns="http://www.w3.org/2000/svg">
    <path id="Vector 2"
        d="M0.853553 0.646447C0.658291 0.451184 0.341709 0.451184 0.146447 0.646447C-0.0488155 0.841709 -0.0488155 1.15829 0.146447 1.35355L0.853553 0.646447ZM10.1464 11.3536C10.3417 11.5488 10.6583 11.5488 10.8536 11.3536C11.0488 11.1583 11.0488 10.8417 10.8536 10.6464L10.1464 11.3536ZM0.146447 10.6464C-0.0488155 10.8417 -0.0488155 11.1583 0.146447 11.3536C0.341709 11.5488 0.658291 11.5488 0.853553 11.3536L0.146447 10.6464ZM10.8536 1.35355C11.0488 1.15829 11.0488 0.841709 10.8536 0.646447C10.6583 0.451184 10.3417 0.451184 10.1464 0.646447L10.8536 1.35355ZM0.146447 1.35355L5.14645 6.35355L5.85355 5.64645L0.853553 0.646447L0.146447 1.35355ZM5.14645 6.35355L10.1464 11.3536L10.8536 10.6464L5.85355 5.64645L5.14645 6.35355ZM5.14645 5.64645L0.146447 10.6464L0.853553 11.3536L5.85355 6.35355L5.14645 5.64645ZM0.853553 11.3536L10.8536 1.35355L10.1464 0.646447L0.146447 10.6464L0.853553 11.3536Z"
        fill="#113157" />
</svg>