<svg width="17" height="20" viewBox="0 0 17 20" fill="none" xmlns="http://www.w3.org/2000/svg">
<path d="M16.0556 3C16.5772 3 17 3.44772 17 4C17 4.55228 16.5772 5 16.0556 5H15.1112L15.1087 5.07129L14.2269 18.1425C14.1564 19.1891 13.3339 20 12.3428 20H4.65721C3.66623 20 2.84372 19.1891 2.77312 18.1425L1.89133 5.07129C1.88972 5.04738 1.88891 5.02361 1.88889 5H0.944444C0.422847 5 0 4.55228 0 4C0 3.44772 0.422847 3 0.944444 3H16.0556ZM13.2199 5H3.78022L4.65721 18H12.3428L13.2199 5ZM10.3889 0C10.9105 0 11.3333 0.44772 11.3333 1C11.3333 1.55228 10.9105 2 10.3889 2H6.61111C6.08951 2 5.66667 1.55228 5.66667 1C5.66667 0.44772 6.08951 0 6.61111 0H10.3889Z" fill="#CED1D4"/>
</svg>
