<svg width="21" height="20" viewBox="0 0 21 20" fill="none" xmlns="http://www.w3.org/2000/svg">
<path d="M5.91181 11.5562L4.00715 16.445L8.81148 14.4559L5.91181 11.5562ZM19.8575 1.11464L19.2479 0.505049C18.5753 -0.16835 17.4829 -0.16835 16.8095 0.505049L15.5903 1.72424L18.6383 4.77307L19.8575 3.55388C20.5317 2.88048 20.5317 1.78804 19.8575 1.11464ZM6.00838 11.307L6.44467 10.8707L9.49264 13.9187L18.0287 5.38267L14.9807 2.3347L15.5903 1.72424L6.00838 11.307ZM16.537 18.279L1.85676 18.2842L1.85934 3.60389L12.1379 3.60044L13.7486 1.89324H0.983321C0.507372 1.89324 0.121094 2.27865 0.121094 2.75546V19.1378C0.121094 19.6146 0.507372 20 0.983321 20H17.3656C17.8424 20 18.2279 19.6146 18.2279 19.1378V7.01659L16.4905 8.72121L16.537 18.279Z" fill="#CED1D4"/>
</svg>
