<svg width="24" height="18" viewBox="0 0 24 18" fill="none" xmlns="http://www.w3.org/2000/svg">
<path fill-rule="evenodd" clip-rule="evenodd" d="M12.4133 3.21666C8.56931 3.15656 4.58531 5.25493 1.77128 9.86705C1.6025 10.1437 1.22874 10.2384 0.936465 10.0787C0.644192 9.91893 0.544082 9.56518 0.712865 9.28855C3.70103 4.39104 8.05769 1.99161 12.4335 2.06002C16.8027 2.12832 21.0318 4.65512 23.7754 9.29535C23.9402 9.57411 23.835 9.92655 23.5405 10.0825C23.246 10.2385 22.8736 10.139 22.7088 9.86026C20.1337 5.50488 16.2639 3.27686 12.4133 3.21666Z" fill="#CED1D4"/>
<path fill-rule="evenodd" clip-rule="evenodd" d="M22.7347 9.25457C17.6508 16.42 7.29602 16.8301 1.74432 9.24758C1.55208 8.98502 1.17136 8.91967 0.893948 9.10162C0.616539 9.28356 0.547494 9.64391 0.739732 9.90647C6.79243 18.1733 18.1959 17.7267 23.7494 9.89947C23.9375 9.63428 23.8629 9.27493 23.5827 9.09684C23.3025 8.91876 22.9228 8.98937 22.7347 9.25457Z" fill="#CED1D4"/>
<path fill-rule="evenodd" clip-rule="evenodd" d="M12.242 13.0474C15.0663 13.0474 17.1309 11.123 17.1309 8.99857C17.1309 6.87411 15.0663 4.94977 12.242 4.94977C9.4176 4.94977 7.35308 6.87411 7.35308 8.99857C7.35308 11.123 9.4176 13.0474 12.242 13.0474ZM12.242 14.2042C15.617 14.2042 18.3531 11.8735 18.3531 8.99857C18.3531 6.1236 15.617 3.79297 12.242 3.79297C8.8669 3.79297 6.13086 6.1236 6.13086 8.99857C6.13086 11.8735 8.8669 14.2042 12.242 14.2042Z" fill="#CED1D4"/>
<path fill-rule="evenodd" clip-rule="evenodd" d="M10.6057 9.22006C11.5096 9.22006 12.2424 8.5265 12.2424 7.67095C12.2424 7.2431 12.0591 6.85576 11.7629 6.57541C11.8437 6.56816 11.9256 6.56445 12.0085 6.56445C13.429 6.56445 14.5805 7.65433 14.5805 8.99876C14.5805 10.3432 13.429 11.4331 12.0085 11.4331C10.588 11.4331 9.43652 10.3432 9.43652 8.99876C9.43652 8.92029 9.44045 8.84268 9.44812 8.76611C9.74432 9.04657 10.1536 9.22006 10.6057 9.22006Z" fill="#CED1D4"/>
<path fill-rule="evenodd" clip-rule="evenodd" d="M20.073 0.970625C20.3706 1.23063 20.3891 1.66975 20.1144 1.95142L5.44774 16.9898C5.17303 17.2715 4.70908 17.2891 4.41148 17.0291C4.11388 16.7691 4.09532 16.3299 4.37003 16.0483L19.0367 1.00986C19.3114 0.728185 19.7754 0.71062 20.073 0.970625Z" fill="#CED1D4"/>
</svg>