<svg width="11" height="20" viewBox="0 0 11 20" fill="none" xmlns="http://www.w3.org/2000/svg">
<path d="M4.6373 16.6585L3.98705 16.0082C3.948 15.9692 3.948 15.9058 3.98705 15.8668L4.6373 15.2165C4.67635 15.1775 4.67635 15.1142 4.6373 15.0751L3.98705 14.4249C3.948 14.3858 3.948 14.3225 3.98705 14.2835L4.6373 13.6332C4.67635 13.5942 4.67635 13.5308 4.6373 13.4918L3.98705 12.8415C3.948 12.8025 3.948 12.7392 3.98705 12.7001L4.6373 12.0499C4.67635 12.0108 4.67635 11.9475 4.6373 11.9085L3.91634 11.1875V9.60417L2.58871 8.4662C1.6727 7.68104 1.14551 6.53482 1.14551 5.32836C1.14551 3.81599 1.9716 2.42441 3.2993 1.70021L3.41467 1.63727C4.71429 0.92839 6.28506 0.92839 7.58468 1.63727L7.70005 1.70021C9.02775 2.42441 9.85384 3.81599 9.85384 5.32836C9.85384 6.53482 9.32665 7.68104 8.41064 8.4662L7.08301 9.60417V18.2625C7.08301 18.294 7.06819 18.3236 7.04301 18.3425L5.55967 19.455C5.52412 19.4817 5.47523 19.4817 5.43967 19.455L3.95634 18.3425C3.93116 18.3236 3.91634 18.294 3.91634 18.2625V17.5623C3.91634 17.5357 3.92688 17.5103 3.94563 17.4915L4.6373 16.7999C4.67635 16.7608 4.67635 16.6975 4.6373 16.6585Z" stroke="#063899"/>
<circle cx="5.49967" cy="4.06315" r="1.47917" stroke="#063899"/>
</svg>
