          <svg width="25" height="25" viewBox="0 0 21 20" fill="none" xmlns="http://www.w3.org/2000/svg">
            <path
              fill-rule="evenodd"
              clip-rule="evenodd"
              d="M0 2.00033C0 0.894182 0.895452 0 2.00122 0H18.011C19.1168 0 20.0122 0.894182 20.0122 2.00033V13.9999C20.0122 15.106 19.1168 16.0002 18.011 16.0002H10.2284L5.06961 19.8667C4.86744 20.0182 4.59705 20.0425 4.3711 19.9295C4.14516 19.8165 4.00245 19.5856 4.00245 19.3329V16.0002H2.00122C0.895452 16.0002 0 15.106 0 13.9999V2.00033ZM5.3366 5.3331H14.6756V6.66725H5.3366V5.3331ZM5.3366 9.33294H12.0073V10.6671H5.3366V9.33294Z"
              fill="#CED1D4"
            />
          </svg>