<svg width="50" height="50" viewBox="0 0 50 50" fill="none" xmlns="http://www.w3.org/2000/svg">
<circle cx="24.6316" cy="25.2781" r="24.6316" fill="#4073AC"/>
<g clip-path="url(#clip0_1131_10711)">
<path d="M12.1807 12.5713V24.3516H23.961V12.5713H12.1807ZM22.2781 22.6687H13.8636V14.2542H22.2781V22.6687Z" fill="white"/>
<path d="M20.5956 15.937H15.5469V20.9857H20.5956V15.937Z" fill="white"/>
<path d="M26.2051 12.5713V24.3516H37.9854V12.5713H26.2051ZM36.3025 22.6687H27.888V14.2542H36.3025V22.6687Z" fill="white"/>
<path d="M34.619 15.937H29.5703V20.9857H34.619V15.937Z" fill="white"/>
<path d="M12.1807 26.5957V38.376H23.961V26.5957H12.1807ZM22.2781 36.6931H13.8636V28.2786H22.2781V36.6931Z" fill="white"/>
<path d="M20.5956 29.9614H15.5469V35.0101H20.5956V29.9614Z" fill="white"/>
<path d="M29.5709 28.2786V26.5957H26.2051V38.376H29.5709V36.6931H27.888V33.3273H29.5709V31.6444H27.888V28.2786H29.5709Z" fill="white"/>
<path d="M37.9856 26.5957H36.3027V28.2786H37.9856V26.5957Z" fill="white"/>
<path d="M36.3021 30.5225V36.6931H34.6191V38.376H37.985V30.5225H36.3021Z" fill="white"/>
<path d="M34.6197 26.5957H31.2539V28.2786H34.6197V26.5957Z" fill="white"/>
<path d="M34.6197 31.6444V29.9614H31.2539V35.0101H34.6197V33.3273H32.9368V31.6444H34.6197Z" fill="white"/>
<path d="M32.9368 36.6929H31.2539V38.3758H32.9368V36.6929Z" fill="white"/>
</g>
<defs>
<clipPath id="clip0_1131_10711">
<rect x="12.1807" y="12.5713" width="25.8045" height="25.8045" fill="white"/>
</clipPath>
</defs>
</svg>
