<svg width="21" height="20" viewBox="0 0 21 20" fill="none" xmlns="http://www.w3.org/2000/svg">
<path fill-rule="evenodd" clip-rule="evenodd" d="M8.50896 2C4.91532 2 2.00211 4.91014 2.00211 8.5C2.00211 12.0898 4.91532 15 8.50896 15C12.1026 15 15.0158 12.0898 15.0158 8.5C15.0158 4.91015 12.1026 2 8.50896 2ZM0 8.5C0 3.80558 3.80959 0 8.50896 0C13.2083 0 17.0179 3.80557 17.0179 8.5C17.0179 10.4903 16.3331 12.3209 15.186 13.7694L19.7268 18.2918C20.1183 18.6818 20.1193 19.3149 19.7289 19.706C19.3386 20.0972 18.7048 20.0981 18.3132 19.7082L13.7687 15.182C12.3211 16.3207 10.4944 17 8.50896 17C3.80958 17 0 13.1944 0 8.5Z" fill="#9DA6B2"/>
</svg>
