<svg width="25" height="25" viewBox="0 0 25 25" fill="none" xmlns="http://www.w3.org/2000/svg">
    <path
    fillRule="evenodd"
    clipRule="evenodd"
    d="M20.8181 11.9103L2.10971 2.55921L4.85364 11.7531L20.8181 11.9103ZM4.85526 13.2586L2.0965 22.792L20.8485 13.416L4.85526 13.2586ZM23.9648 12.0067C23.8413 11.8086 23.6649 11.649 23.4556 11.5457L23.4523 11.544L2.25915 0.950987L2.25726 0.950054C2.04342 0.844662 1.80397 0.802389 1.56696 0.828185C1.32996 0.853982 1.10521 0.946779 0.919047 1.09571C0.732884 1.24464 0.593013 1.44354 0.51582 1.6691C0.438625 1.89466 0.427309 2.13755 0.483187 2.36931L0.487903 2.38887L3.50663 12.5035L0.480069 22.9624L0.476092 22.9789C0.42021 23.2107 0.43153 23.4536 0.508723 23.6791C0.585916 23.9047 0.725783 24.1036 0.911949 24.2525C1.09811 24.4015 1.32286 24.4943 1.55987 24.5201C1.79687 24.5459 2.03632 24.5036 2.25017 24.3982L2.2521 24.3972L23.4523 13.7971L23.4554 13.7956C23.6648 13.6923 23.8412 13.5326 23.9648 13.3344C24.089 13.1353 24.1549 12.9053 24.1549 12.6706C24.1549 12.4359 24.089 12.2059 23.9648 12.0067Z"
    fill="#5D83AD"
    />
</svg>