<svg width="24" height="20" viewBox="0 0 24 20" fill="none" xmlns="http://www.w3.org/2000/svg">
<path d="M0.966797 6.62903L4.64422 0.5H19.3539L23.0313 6.62903M0.966797 6.62903H6.48293M0.966797 6.62903L1.70706 9.21995C2.24128 11.0897 4.85956 11.1745 5.51359 9.34318L6.48293 6.62903M23.0313 6.62903C23.0313 6.62903 22.448 7.83679 21.7767 9.03496C21.1941 10.0749 19.8728 10.1501 19.1838 9.17742C18.3034 7.9345 17.5152 6.62903 17.5152 6.62903M23.0313 6.62903H17.5152M17.5152 6.62903L16.7749 9.21995C16.2407 11.0897 13.6224 11.1745 12.9684 9.34318L11.9991 6.62903M17.5152 6.62903H11.9991M11.9991 6.62903L11.0297 9.34318C10.3757 11.1745 7.7574 11.0897 7.22319 9.21995L6.48293 6.62903M11.9991 6.62903H6.48293M3.41841 19.5H5.87002M3.41841 19.5V10.0921M3.41841 19.5H20.5797M20.5797 19.5H10.7732M20.5797 19.5V10.0049M5.87002 19.5C5.87002 19.0821 5.87002 15.37 5.87002 13.144C5.87002 12.5917 6.31774 12.1452 6.87002 12.1452H8.32164H9.77325C10.3255 12.1452 10.7732 12.5929 10.7732 13.1452V19.5M5.87002 19.5H10.7732M12.612 15.8226V12.1452H17.5152V15.8226H12.612Z" stroke="#063899"/>
</svg>
