<svg width="24" height="20" viewBox="0 0 24 20" fill="none" xmlns="http://www.w3.org/2000/svg">
<path d="M1 19.5L1.69161 18.7485C2.88548 17.4512 4.4011 16.4927 6.08484 15.9699L6.50728 15.8388C7.34403 15.579 7.91429 14.8049 7.91429 13.9287V12.889C7.91429 12.7447 7.88305 12.6021 7.82272 12.471L6.45652 9.50191C5.81119 8.09948 6.0305 6.45087 7.02004 5.26592L8.11581 3.95376C9.65089 2.11553 12.4463 2.02911 14.092 3.769L15.2973 5.04324C16.5113 6.32678 16.7395 8.2548 15.8586 9.78629L14.3332 12.4384C14.2459 12.5901 14.2 12.762 14.2 12.937V14.1285C14.2 14.8658 14.7276 15.4975 15.4531 15.6289V15.6289C17.0872 15.9248 18.58 16.7462 19.7045 17.9681L21.0925 19.4763" stroke="#063899" stroke-linecap="round"/>
<path d="M22.5974 19.1144C22.7611 19.3368 23.0741 19.3843 23.2965 19.2206C23.5188 19.0569 23.5664 18.7439 23.4027 18.5215L22.5974 19.1144ZM18.4334 6.30173L17.9417 6.39224L18.4334 6.30173ZM18.4334 8.11192L17.9417 8.02141L18.4334 8.11192ZM20.8452 15.8911L21.2478 15.5947L20.8452 15.8911ZM17.3738 14.2757L17.2035 14.7459L17.3738 14.2757ZM16.8619 12.4302L16.4358 12.1688L16.8619 12.4302ZM17.4844 11.4156L17.9106 11.6771L17.4844 11.4156ZM18.14 9.70597L18.6318 9.79648L18.14 9.70597ZM18.2597 5.35794L18.7515 5.26743L18.2597 5.35794ZM17.0583 11.1542L16.4358 12.1688L17.2881 12.6917L17.9106 11.6771L17.0583 11.1542ZM16.2143 12.9532V13.3355H17.2143V12.9532H16.2143ZM17.2035 14.7459L19.7454 15.6666L20.086 14.7263L17.544 13.8056L17.2035 14.7459ZM20.4425 16.1876L22.5974 19.1144L23.4027 18.5215L21.2478 15.5947L20.4425 16.1876ZM17.768 5.44845L17.9417 6.39224L18.9252 6.21122L18.7515 5.26743L17.768 5.44845ZM17.9417 8.02141L17.6483 9.61546L18.6318 9.79648L18.9252 8.20243L17.9417 8.02141ZM13.1138 3.48688L14.3353 3.20143L14.1077 2.22766L12.8862 2.51312L13.1138 3.48688ZM14.3353 3.20143C15.0119 3.04331 15.723 3.13922 16.3335 3.47091L16.8109 2.59222C15.985 2.1435 15.023 2.01377 14.1077 2.22766L14.3353 3.20143ZM17.9417 6.39224C18.0408 6.93077 18.0408 7.48288 17.9417 8.02141L18.9252 8.20243C19.0463 7.54422 19.0463 6.86943 18.9252 6.21122L17.9417 6.39224ZM19.7454 15.6666C20.0242 15.7675 20.2668 15.9488 20.4425 16.1876L21.2478 15.5947C20.9549 15.1968 20.5506 14.8946 20.086 14.7263L19.7454 15.6666ZM16.2143 13.3355C16.2143 13.967 16.6098 14.5308 17.2035 14.7459L17.544 13.8056C17.3461 13.734 17.2143 13.546 17.2143 13.3355H16.2143ZM16.4358 12.1688C16.291 12.4048 16.2143 12.6763 16.2143 12.9532H17.2143C17.2143 12.8609 17.2399 12.7704 17.2881 12.6917L16.4358 12.1688ZM17.9106 11.6771C18.2647 11.1 18.5092 10.4624 18.6318 9.79648L17.6483 9.61546C17.548 10.1603 17.348 10.682 17.0583 11.1542L17.9106 11.6771ZM18.7515 5.26743C18.5418 4.12839 17.8285 3.14513 16.8109 2.59222L16.3335 3.47091C17.0858 3.87963 17.613 4.60646 17.768 5.44845L18.7515 5.26743Z" fill="#063899"/>
</svg>
