<svg width="17" height="17" viewBox="0 0 17 17" fill="none" xmlns="http://www.w3.org/2000/svg">
<path d="M0 8.5C0 6.81886 0.498516 5.17547 1.43251 3.77766C2.3665 2.37984 3.69402 1.29037 5.24719 0.647028C6.80036 0.00368288 8.50943 -0.164645 10.1583 0.163329C11.8071 0.491303 13.3217 1.30085 14.5104 2.4896C15.6992 3.67834 16.5087 5.1929 16.8367 6.84173C17.1646 8.49057 16.9963 10.1996 16.353 11.7528C15.7096 13.306 14.6202 14.6335 13.2223 15.5675C11.8245 16.5015 10.1811 17 8.5 17C6.24644 16.9975 4.0859 16.1011 2.4924 14.5076C0.898886 12.9141 0.00253819 10.7536 0 8.5ZM8.5 15.6923C10.2762 15.6938 11.9897 15.0355 13.3079 13.845C12.9394 13.5516 12.5193 13.3298 12.0691 13.1911C11.9715 13.1563 11.8695 13.1205 11.7405 13.0778L11.4039 12.9645C10.1834 12.5538 9.64031 12.2226 9.40492 11.4458C9.38498 11.382 9.36897 11.3171 9.35697 11.2514C9.27257 10.8418 9.31452 10.4161 9.47728 10.0309C9.59147 9.76263 9.76741 9.52516 9.99077 9.3378C10.2874 9.09703 10.524 8.79049 10.6817 8.44246C10.8393 8.09443 10.9138 7.71447 10.8992 7.33267C10.9083 7.00849 10.8536 6.68567 10.7379 6.38266C10.6223 6.07966 10.4481 5.8024 10.2253 5.56673C10.0025 5.33106 9.7355 5.1416 9.43946 5.00916C9.14342 4.87672 8.82419 4.80391 8.5 4.79487C8.17436 4.8004 7.85312 4.87104 7.55519 5.00263C7.25727 5.13422 6.98869 5.32409 6.76528 5.56107C6.54187 5.79805 6.36814 6.07735 6.25432 6.3825C6.14051 6.68765 6.08891 7.0125 6.10256 7.3379C6.08837 7.71278 6.15946 8.08598 6.31048 8.42939C6.46149 8.77279 6.68849 9.07744 6.97436 9.32036C7.17891 9.48724 7.34814 9.69321 7.47215 9.92626C7.68907 10.3376 7.75095 10.8131 7.64651 11.2662C7.63723 11.3165 7.62411 11.3661 7.60728 11.4144C7.40067 12.179 6.86887 12.5076 5.69979 12.9069L5.31184 13.0377C5.16102 13.0891 5.04333 13.1301 4.93087 13.172C4.47986 13.3161 4.06014 13.5441 3.69379 13.8441C5.01137 15.0347 6.72422 15.6933 8.5 15.6923ZM12.2051 7.3379C12.2187 7.90617 12.1035 8.47016 11.8682 8.98757C11.6328 9.50498 11.2833 9.9624 10.846 10.3255C10.7728 10.385 10.7151 10.4613 10.6777 10.5478C10.621 10.6941 10.6079 10.8537 10.6403 11.0073C10.6455 11.0343 10.649 11.0474 10.6516 11.0552C10.7187 11.2758 11.0073 11.451 11.8215 11.7256L12.1563 11.8381C12.2932 11.8843 12.4039 11.9253 12.512 11.961C13.1295 12.1546 13.7027 12.468 14.1989 12.8834C15.0185 11.8189 15.5235 10.5462 15.6568 9.20941C15.7901 7.87263 15.5464 6.52524 14.9532 5.31989C14.36 4.11454 13.441 3.09942 12.3005 2.38955C11.16 1.67967 9.84341 1.30342 8.5 1.30342C7.15659 1.30342 5.84003 1.67967 4.69949 2.38955C3.55895 3.09942 2.64003 4.11454 2.04683 5.31989C1.45364 6.52524 1.20988 7.87263 1.34319 9.20941C1.47649 10.5462 1.98153 11.8189 2.80108 12.8834C3.2928 12.4636 3.86207 12.1443 4.47667 11.9436C4.6022 11.8974 4.73036 11.8564 4.89077 11.798L5.27697 11.6681C6.02933 11.4066 6.29697 11.2462 6.36149 11.0169C6.36149 11.0221 6.36149 11.0125 6.36759 10.9881C6.40403 10.836 6.38614 10.6759 6.31702 10.5356C6.26477 10.4438 6.19449 10.3634 6.11041 10.2994C5.68578 9.93375 5.34754 9.47849 5.12005 8.96638C4.89257 8.45428 4.78151 7.8981 4.79487 7.3379C4.78131 6.84074 4.86681 6.34586 5.04639 5.88207C5.22597 5.41828 5.49604 4.99486 5.84088 4.63648C6.18571 4.27809 6.59841 3.99191 7.05494 3.7946C7.51146 3.59728 8.00269 3.49278 8.5 3.48718C8.9962 3.49648 9.48571 3.60349 9.94053 3.80209C10.3953 4.00068 10.8066 4.28698 11.1507 4.64461C11.4948 5.00223 11.765 5.42417 11.946 5.88631C12.1269 6.34844 12.215 6.84171 12.2051 7.3379Z" fill="#CED1D4"/>
</svg>